<svg id="visual" viewBox="0 0 900 600" width="900" height="600" xmlns="http://www.w3.org/2000/svg" xmlns:xlink="http://www.w3.org/1999/xlink" version="1.1"><rect x="0" y="0" width="900" height="600" fill="#300607"></rect><path d="M0 447L21.5 436C43 425 86 403 128.8 400.7C171.7 398.3 214.3 415.7 257.2 416.3C300 417 343 401 385.8 400.2C428.7 399.3 471.3 413.7 514.2 417.3C557 421 600 414 642.8 412.3C685.7 410.7 728.3 414.3 771.2 418C814 421.7 857 425.3 878.5 427.2L900 429L900 601L878.5 601C857 601 814 601 771.2 601C728.3 601 685.7 601 642.8 601C600 601 557 601 514.2 601C471.3 601 428.7 601 385.8 601C343 601 300 601 257.2 601C214.3 601 171.7 601 128.8 601C86 601 43 601 21.5 601L0 601Z" fill="#ca8b3b"></path><path d="M0 412L21.5 410.5C43 409 86 406 128.8 410.7C171.7 415.3 214.3 427.7 257.2 437C300 446.3 343 452.7 385.8 448.3C428.7 444 471.3 429 514.2 425.7C557 422.3 600 430.7 642.8 435.2C685.7 439.7 728.3 440.3 771.2 439.3C814 438.3 857 435.7 878.5 434.3L900 433L900 601L878.5 601C857 601 814 601 771.2 601C728.3 601 685.7 601 642.8 601C600 601 557 601 514.2 601C471.3 601 428.7 601 385.8 601C343 601 300 601 257.2 601C214.3 601 171.7 601 128.8 601C86 601 43 601 21.5 601L0 601Z" fill="#cea55c"></path><path d="M0 474L21.5 474.7C43 475.3 86 476.7 128.8 470.7C171.7 464.7 214.3 451.3 257.2 454.7C300 458 343 478 385.8 483.3C428.7 488.7 471.3 479.3 514.2 472.3C557 465.3 600 460.7 642.8 456.3C685.7 452 728.3 448 771.2 445.7C814 443.3 857 442.7 878.5 442.3L900 442L900 601L878.5 601C857 601 814 601 771.2 601C728.3 601 685.7 601 642.8 601C600 601 557 601 514.2 601C471.3 601 428.7 601 385.8 601C343 601 300 601 257.2 601C214.3 601 171.7 601 128.8 601C86 601 43 601 21.5 601L0 601Z" fill="#d4bd80"></path><path d="M0 495L21.5 502.2C43 509.3 86 523.7 128.8 522.3C171.7 521 214.3 504 257.2 499.8C300 495.7 343 504.3 385.8 507.3C428.7 510.3 471.3 507.7 514.2 504.3C557 501 600 497 642.8 496C685.7 495 728.3 497 771.2 495.3C814 493.7 857 488.3 878.5 485.7L900 483L900 601L878.5 601C857 601 814 601 771.2 601C728.3 601 685.7 601 642.8 601C600 601 557 601 514.2 601C471.3 601 428.7 601 385.8 601C343 601 300 601 257.2 601C214.3 601 171.7 601 128.8 601C86 601 43 601 21.5 601L0 601Z" fill="#ddd4a6"></path><path d="M0 536L21.5 540.5C43 545 86 554 128.8 552.7C171.7 551.3 214.3 539.7 257.2 540.5C300 541.3 343 554.7 385.8 555.5C428.7 556.3 471.3 544.7 514.2 545.3C557 546 600 559 642.8 563.8C685.7 568.7 728.3 565.3 771.2 565.3C814 565.3 857 568.7 878.5 570.3L900 572L900 601L878.5 601C857 601 814 601 771.2 601C728.3 601 685.7 601 642.8 601C600 601 557 601 514.2 601C471.3 601 428.7 601 385.8 601C343 601 300 601 257.2 601C214.3 601 171.7 601 128.8 601C86 601 43 601 21.5 601L0 601Z" fill="#e9e9cd"></path></svg>